<?xml version="1.0" standalone="no"?>
<!DOCTYPE svg PUBLIC "-//W3C//DTD SVG 20010904//EN"
 "http://www.w3.org/TR/2001/REC-SVG-20010904/DTD/svg10.dtd">
<svg version="1.0" xmlns="http://www.w3.org/2000/svg"
 width="2048.000000pt" height="2048.000000pt" viewBox="0 0 2048.000000 2048.000000"
 preserveAspectRatio="xMidYMid meet">
<metadata>
Created by potrace 1.14, written by Peter Selinger 2001-2017
</metadata>
<g transform="translate(0.000000,2048.000000) scale(0.100000,-0.100000)"
fill="#000000" stroke="none">
<path d="M8795 18003 c-239 -19 -400 -43 -585 -89 -111 -27 -301 -86 -360
-111 -52 -22 -83 -35 -105 -43 -76 -28 -290 -135 -402 -201 -268 -157 -484
-327 -718 -563 -295 -298 -509 -618 -670 -1001 -7 -16 -20 -46 -28 -65 -24
-54 -99 -270 -117 -335 -5 -16 -18 -64 -30 -105 -25 -93 -58 -253 -66 -328 -4
-31 -10 -61 -14 -67 -13 -18 -69 -169 -89 -240 -132 -465 -73 -940 158 -1258
54 -75 222 -248 263 -272 10 -6 20 -27 24 -50 3 -22 19 -102 35 -178 16 -76
29 -140 29 -142 0 -3 -26 -5 -58 -5 -72 0 -356 -27 -435 -41 -252 -45 -453
-191 -557 -404 -51 -105 -75 -173 -91 -264 -14 -74 -14 -75 -65 -107 -28 -18
-129 -76 -225 -130 -411 -230 -598 -363 -614 -436 -4 -15 -13 -28 -21 -28 -29
0 -173 -54 -269 -100 -274 -133 -508 -341 -696 -621 -65 -97 -162 -280 -198
-374 -13 -33 -27 -69 -32 -80 -21 -47 -78 -279 -94 -383 -24 -153 -16 -463 14
-597 24 -110 51 -195 85 -269 14 -31 26 -59 26 -61 0 -14 95 -157 114 -173 19
-14 26 -34 36 -107 54 -402 125 -751 252 -1240 60 -234 78 -296 142 -510 48
-158 162 -495 186 -550 5 -11 20 -53 34 -93 56 -159 146 -339 201 -400 26 -29
48 -62 50 -74 6 -51 73 -261 109 -341 8 -18 22 -52 32 -77 10 -25 66 -139 124
-255 266 -524 575 -929 931 -1221 111 -90 332 -319 324 -334 -2 -3 -331 -1
-732 3 -771 8 -891 4 -1053 -35 -234 -56 -430 -158 -652 -336 -86 -70 -87 -70
-160 -75 -40 -3 -260 -18 -488 -32 -599 -39 -691 -48 -691 -70 0 -22 355 -48
1021 -75 151 -6 336 -15 410 -20 456 -33 13925 -34 14330 -1 69 6 238 15 375
20 670 28 1059 52 1072 65 4 4 2 10 -3 15 -11 10 -348 46 -579 61 -93 6 -220
15 -281 21 -60 5 -139 9 -175 9 -35 0 -121 5 -192 11 l-127 12 -73 64 c-39 35
-108 88 -152 117 -84 56 -262 146 -330 167 -22 6 -49 15 -60 19 -53 19 -95 30
-142 36 -56 7 -68 18 -30 29 43 13 163 78 222 120 74 52 198 181 252 261 73
108 215 413 263 564 5 14 22 63 40 110 42 114 100 281 166 480 30 91 59 174
63 185 7 15 325 979 431 1305 19 56 94 297 112 360 6 19 14 44 19 55 4 11 10
29 12 40 3 11 15 52 27 90 24 80 57 196 106 373 64 233 89 391 81 526 -12 218
-104 390 -241 455 -100 46 -154 51 -646 61 -256 5 -466 9 -467 9 -1 1 -2 135
-2 299 0 292 -7 408 -36 667 -30 256 -95 565 -130 611 -18 24 -18 19 0 -124
20 -165 43 -483 50 -712 7 -227 -9 -718 -23 -732 -10 -10 -1611 8 -1621 18 -5
4 18 108 47 209 85 302 96 351 96 436 1 55 -4 91 -12 101 -10 12 -7 28 19 84
60 135 53 126 111 141 85 22 153 70 289 203 134 133 290 321 397 482 51 77 72
100 96 107 45 13 178 66 298 120 26 11 54 21 61 21 7 0 17 4 23 8 5 5 63 28
129 52 134 48 233 94 297 138 62 43 157 145 221 234 60 84 171 302 197 386 28
90 26 95 105 -216 69 -268 105 -467 154 -852 26 -196 44 -435 36 -460 -5 -15
-15 -20 -39 -20 -61 0 -136 -30 -181 -71 -61 -57 -85 -110 -85 -191 0 -144 89
-250 232 -279 79 -16 154 7 218 67 66 61 90 116 90 201 0 88 -30 153 -97 213
l-50 45 -7 185 c-7 185 -26 415 -46 565 -32 233 -36 257 -75 443 -24 117 -54
240 -90 369 -28 99 -76 257 -84 278 -5 11 -23 67 -42 125 -18 58 -36 110 -39
115 -4 6 -22 48 -40 95 -143 367 -342 694 -544 896 -90 90 -182 161 -193 150
-3 -3 24 -36 61 -74 158 -163 341 -454 466 -742 18 -41 43 -98 55 -125 12 -28
30 -71 38 -95 8 -25 25 -69 36 -97 22 -56 17 -67 -15 -31 -26 29 -135 98 -216
136 -37 18 -69 32 -71 32 -3 0 -45 18 -94 41 -130 60 -142 65 -213 94 -50 20
-73 37 -100 71 -65 84 -129 111 -283 121 l-108 6 55 56 c85 87 92 151 29 271
-58 111 -206 240 -336 291 -88 35 -118 36 -182 5 -78 -37 -299 -192 -488 -343
-263 -209 -547 -507 -674 -705 l-50 -78 -11 113 c-19 181 -32 385 -32 497 0
58 -5 123 -11 144 -12 43 -55 90 -91 99 -457 113 -595 111 -681 -9 -49 -70
-77 -312 -84 -739 -6 -331 2 -465 42 -674 15 -81 25 -170 25 -225 0 -132 27
-474 46 -576 l16 -87 -33 -50 -33 -50 -108 5 c-118 5 -172 -5 -248 -46 -103
-57 -222 -170 -311 -297 -37 -53 -129 -203 -129 -210 0 -2 -22 -48 -48 -102
-43 -88 -73 -161 -127 -302 -31 -84 -105 -310 -105 -323 0 -7 -4 -19 -9 -27
-12 -18 -163 113 -357 310 -78 79 -202 203 -275 275 l-134 131 48 59 c27 33
73 96 103 141 45 67 54 86 48 108 -4 15 -38 75 -77 134 -185 282 -410 485
-689 623 -70 35 -127 66 -128 69 0 3 96 79 213 170 392 303 552 498 710 869
72 171 200 602 246 831 5 24 20 100 34 169 22 110 43 230 77 445 10 64 42 313
60 460 40 348 30 685 -32 1020 -11 61 -27 135 -35 165 -8 30 -21 82 -29 115
-8 33 -19 68 -25 77 -5 10 -9 23 -9 30 0 6 -14 50 -31 97 -31 87 -35 97 -63
164 -9 20 -23 54 -32 75 -20 47 -58 124 -113 230 -24 45 -41 85 -39 88 8 8
675 -207 760 -245 24 -10 86 -35 138 -56 197 -76 475 -210 655 -315 50 -29
105 -61 124 -72 146 -83 492 -337 651 -477 201 -178 465 -451 622 -646 139
-172 324 -438 435 -625 28 -47 74 -124 102 -171 52 -89 73 -113 90 -107 12 4
7 15 -110 253 -203 415 -500 825 -854 1180 -246 246 -470 430 -740 607 -145
95 -149 98 -375 222 -128 71 -372 186 -392 186 -8 0 -18 4 -23 8 -10 9 -141
61 -290 116 -87 32 -350 107 -470 134 -145 32 -277 61 -317 68 -45 7 -48 11
-134 149 -37 61 -89 140 -115 177 -37 51 -44 68 -33 72 103 39 533 -12 912
-109 157 -40 236 -64 377 -112 55 -19 123 -41 150 -50 28 -8 68 -23 90 -33 22
-10 56 -23 75 -31 165 -61 390 -165 532 -245 162 -92 111 -30 -78 95 -149 98
-443 250 -594 306 -25 9 -54 21 -65 26 -93 41 -420 134 -575 164 -217 41 -313
49 -570 49 -140 0 -267 -3 -281 -7 -24 -6 -35 4 -135 126 -122 149 -347 378
-504 513 -442 380 -990 680 -1470 803 -47 12 -98 26 -115 31 -46 14 -282 60
-360 71 -243 33 -490 45 -650 32z m565 -249 c128 -17 263 -41 310 -54 31 -8
90 -23 201 -51 62 -15 269 -89 369 -132 153 -65 221 -99 405 -202 335 -188
704 -493 990 -820 327 -374 618 -872 748 -1280 110 -348 147 -581 147 -930
l-1 -210 -37 70 c-137 258 -402 451 -797 579 -44 14 -93 30 -110 35 -45 15
-290 76 -380 96 -211 44 -267 56 -355 75 -53 10 -134 26 -180 34 -47 8 -168
30 -270 50 -180 33 -376 63 -572 87 -144 17 -488 6 -603 -19 -91 -20 -171 -45
-212 -64 -13 -6 -26 -8 -30 -4 -7 7 -38 112 -53 181 -20 92 -133 406 -196 542
-213 467 -473 828 -739 1029 -115 86 -290 184 -329 184 -8 0 -16 3 -18 8 -1 4
-46 19 -98 32 -82 22 -117 25 -255 25 -176 0 -296 -21 -360 -62 -11 -7 -23
-13 -28 -13 -18 0 13 32 103 105 195 159 316 241 565 380 345 194 812 326
1230 349 123 6 447 -5 555 -20z m-1860 -865 c98 -22 93 -20 225 -85 380 -186
709 -621 979 -1294 25 -63 46 -120 46 -127 0 -7 4 -21 10 -31 9 -16 67 -202
104 -331 15 -54 14 -71 -5 -71 -17 0 -184 -117 -258 -180 -192 -166 -388 -465
-510 -775 -24 -60 -47 -119 -51 -130 -39 -98 -100 -323 -120 -445 -7 -41 -16
-99 -21 -129 -27 -165 5 -509 60 -636 5 -11 19 -47 32 -80 71 -186 197 -376
372 -563 194 -207 395 -364 672 -527 51 -30 251 -130 318 -159 20 -9 52 -23
71 -31 19 -8 37 -15 41 -15 4 0 21 -7 38 -15 55 -25 275 -93 401 -124 266 -66
483 -92 755 -93 270 0 455 19 574 58 27 9 51 14 53 11 3 -3 -14 -18 -38 -34
-24 -16 -77 -52 -119 -81 -344 -235 -871 -306 -1534 -207 -110 16 -127 20
-330 70 -190 47 -273 70 -281 78 -4 4 -17 7 -29 7 -12 0 -24 3 -28 6 -3 4 -39
17 -79 31 -40 13 -87 30 -105 38 -17 8 -34 15 -38 15 -4 0 -35 12 -69 26 -33
14 -70 30 -81 34 -94 39 -480 234 -607 308 -21 12 -53 30 -70 41 -342 195
-815 519 -1048 717 -146 124 -255 227 -297 279 -29 35 -58 107 -83 200 -4 17
-22 75 -38 130 -52 172 -116 415 -110 421 2 1 52 -8 112 -21 152 -35 344 -35
466 -2 348 96 634 419 719 812 6 28 15 71 21 97 31 144 -4 589 -61 773 -31
101 -40 127 -65 190 -138 347 -358 575 -619 640 -242 61 -654 -44 -837 -214
l-38 -35 9 30 c5 16 21 70 36 119 65 220 192 504 325 729 105 176 310 438 362
463 140 68 297 119 413 134 87 11 257 1 355 -22z m-680 -1353 c124 -27 195
-63 283 -146 176 -164 295 -426 358 -785 45 -253 34 -479 -33 -680 -54 -163
-144 -304 -271 -427 -128 -124 -321 -199 -504 -197 -122 2 -139 12 -44 27 252
40 492 233 592 475 78 188 93 274 93 532 0 270 -29 433 -120 660 -104 259
-269 464 -425 525 -30 12 -56 24 -58 26 -9 9 68 3 129 -10z m-225 -100 c80
-21 131 -52 210 -128 107 -101 174 -210 255 -413 29 -73 60 -191 81 -315 19
-107 16 -415 -4 -505 -65 -285 -185 -452 -397 -552 -105 -49 -152 -58 -295
-57 -107 1 -140 5 -183 22 -79 31 -135 66 -202 129 -82 76 -190 228 -190 268
0 8 -4 15 -10 15 -5 0 -10 10 -10 23 0 13 -4 27 -9 32 -12 14 -48 165 -60 258
-19 139 -7 347 29 480 5 20 14 52 19 70 57 209 214 476 336 568 62 47 153 85
244 103 88 18 126 18 186 2z m3101 -436 c526 -41 1831 -307 2091 -426 17 -8
35 -14 39 -14 18 0 205 -98 274 -143 156 -104 271 -227 334 -357 63 -133 71
-179 56 -337 -17 -185 -73 -538 -109 -698 -5 -22 -14 -62 -19 -90 -86 -417
-207 -824 -302 -1020 -96 -198 -256 -396 -415 -513 -83 -62 -223 -132 -329
-167 -298 -97 -738 -112 -1151 -40 -104 18 -153 29 -285 63 -52 14 -106 27
-120 30 -14 2 -29 8 -35 12 -5 4 -32 13 -60 20 -27 7 -54 16 -60 20 -5 3 -30
13 -55 20 -25 7 -49 17 -55 20 -5 4 -37 17 -70 30 -33 13 -121 55 -196 92
-426 212 -771 501 -991 833 -281 422 -313 832 -113 1430 126 377 278 646 484
858 105 108 187 170 311 234 172 89 334 132 555 146 28 2 59 4 71 5 12 1 79
-3 150 -8z m6503 -2191 c61 -40 155 -137 191 -194 l18 -30 -107 -96 c-206
-188 -267 -240 -317 -275 l-51 -35 -39 16 c-74 30 -132 102 -169 207 -27 80
-13 145 48 214 70 79 293 234 337 234 16 0 54 -17 89 -41z m-9978 -159 c14
-41 30 -83 34 -92 5 -13 1 -20 -18 -27 -14 -6 -29 -17 -34 -26 -7 -12 -32 -16
-123 -18 -99 -3 -123 -8 -173 -30 -61 -29 -116 -80 -117 -111 0 -19 -2 -20 80
6 19 7 84 12 145 12 l110 1 6 -50 c16 -128 109 -239 635 -755 310 -305 361
-352 531 -497 306 -262 569 -457 818 -608 102 -62 322 -174 400 -204 33 -13
74 -29 90 -36 45 -19 210 -71 300 -94 297 -75 512 -67 725 26 126 55 209 103
257 150 60 58 73 83 88 168 l10 60 48 0 c26 -1 100 -2 166 -3 l119 -2 22 -97
c29 -126 25 -273 -10 -342 -99 -199 -390 -291 -915 -291 -242 0 -418 15 -645
56 -458 83 -909 273 -1295 547 -122 86 -211 158 -426 347 -91 80 -187 163
-213 185 -27 22 -63 52 -81 68 -18 15 -38 27 -44 27 -61 0 354 -447 589 -635
114 -92 269 -198 384 -264 73 -42 302 -158 361 -181 309 -126 584 -197 935
-242 164 -21 704 -17 845 5 366 59 546 164 626 362 21 52 24 76 23 175 0 75
-7 138 -18 180 -10 36 -20 74 -23 86 -4 20 2 22 104 39 59 10 128 20 153 23
25 2 50 9 57 14 7 5 17 7 23 3 12 -7 140 -273 140 -290 0 -3 8 -24 19 -48 10
-23 29 -69 41 -102 12 -33 26 -69 30 -80 55 -130 134 -495 151 -695 13 -150 6
-538 -11 -660 -23 -167 -67 -382 -118 -580 -24 -92 -125 -394 -153 -458 -12
-26 -25 -57 -30 -69 -77 -193 -267 -585 -382 -788 -51 -91 -185 -295 -193
-295 -3 0 -17 6 -32 14 -15 8 -63 26 -107 42 -113 39 -300 45 -500 14 -77 -11
-196 -28 -265 -36 -110 -13 -230 -33 -379 -63 l-45 -9 -60 58 c-34 32 -77 68
-96 81 l-35 24 215 2 c358 2 699 45 840 105 92 39 100 43 100 52 0 9 -62 6
-265 -14 -165 -17 -509 -30 -519 -20 -8 8 15 515 24 524 3 2 73 -1 155 -6 330
-22 622 5 913 84 41 11 77 17 80 13 11 -11 6 -284 -6 -354 -7 -36 -10 -67 -8
-69 10 -10 39 54 66 149 17 57 35 113 40 124 5 11 14 37 20 57 6 20 49 96 96
169 82 127 133 212 179 294 115 207 148 274 186 375 7 19 20 46 29 60 9 14 23
41 30 60 7 19 17 39 22 45 4 5 8 18 8 28 0 28 -46 14 -87 -25 -27 -26 -93
-142 -93 -162 0 -40 -349 -692 -382 -712 -5 -3 -12 3 -15 14 -12 46 -82 52
-249 22 -277 -52 -573 -73 -829 -61 -82 4 -164 4 -181 -1 -69 -18 -84 -92 -84
-406 l0 -234 -127 6 c-169 8 -329 24 -487 47 -142 21 -309 25 -352 8 -19 -6
-35 -7 -49 -1 -23 12 -194 64 -280 88 -71 19 -119 32 -160 44 -47 13 -265 69
-315 81 -25 5 -61 14 -80 18 -19 5 -60 14 -90 21 -30 7 -71 16 -90 20 -226 51
-567 115 -666 125 -71 7 -72 7 -78 38 -7 35 11 57 48 57 12 0 53 11 91 25 249
90 432 249 537 465 50 103 51 108 86 220 31 102 62 313 83 563 11 144 8 531
-7 755 -4 60 -3 92 4 92 16 0 258 -236 322 -314 142 -175 246 -371 326 -616
34 -105 38 -116 84 -290 98 -364 161 -486 291 -562 100 -59 111 -49 32 30
-108 107 -165 233 -218 487 -31 149 -75 317 -111 424 -113 337 -336 640 -654
891 l-88 70 -7 72 c-33 351 -144 802 -266 1075 -10 24 -19 45 -19 48 0 18
-168 355 -218 439 -23 37 -42 69 -42 71 0 9 -132 210 -183 279 -157 209 -303
367 -487 524 -179 153 -225 198 -263 256 -27 43 -31 58 -31 115 0 79 25 134
81 179 47 38 37 51 -19 26 -127 -57 -185 -182 -147 -319 25 -88 74 -142 347
-385 182 -161 400 -424 561 -678 76 -120 235 -420 271 -512 12 -30 27 -68 35
-85 98 -224 208 -633 235 -874 55 -486 55 -1126 0 -1526 -11 -78 -51 -250 -69
-290 -69 -161 -141 -268 -242 -358 -95 -84 -244 -166 -334 -183 l-32 -6 -7
144 c-3 78 -9 170 -12 204 -6 56 -4 63 20 89 14 15 32 40 40 54 7 14 23 44 34
66 34 64 91 192 129 290 19 50 39 99 44 110 16 39 73 250 108 405 30 130 61
407 61 541 0 196 -35 470 -81 634 -34 121 -62 210 -71 219 -4 6 -8 16 -8 23 0
15 -22 66 -96 218 -69 142 -101 197 -189 323 -192 275 -511 576 -684 646 -101
41 -102 42 79 -149 481 -510 670 -795 804 -1214 48 -149 72 -271 92 -466 15
-138 15 -182 5 -325 -16 -226 -59 -488 -108 -660 -32 -114 -145 -389 -191
-465 -10 -17 -11 -13 -5 24 4 30 3 42 -4 38 -7 -4 -14 8 -17 28 -6 29 -2 41
22 73 69 87 112 194 137 342 9 52 21 115 26 140 12 59 11 513 -1 615 -42 329
-102 607 -160 740 -5 11 -12 31 -16 45 -14 53 -148 313 -205 401 -180 274
-392 486 -694 694 -28 19 -33 26 -17 22 33 -8 27 2 -15 21 -21 10 -58 29 -83
44 -25 14 -56 29 -70 33 -14 4 -76 30 -139 57 -63 27 -150 60 -195 72 -78 23
-288 52 -304 42 -4 -3 -14 -1 -22 5 -9 5 -10 9 -4 9 7 0 15 7 18 16 5 12 0 11
-22 -4 -27 -19 -82 -35 -82 -23 0 7 126 86 265 166 87 51 117 67 255 143 36
19 73 42 82 50 20 17 38 8 38 -19 0 -10 4 -27 9 -37 5 -9 26 -59 48 -111 43
-107 99 -177 162 -205 l40 -19 45 27 c26 15 46 29 46 31 0 3 -9 22 -20 42 -11
21 -20 43 -20 50 0 7 -4 13 -10 13 -5 0 -10 5 -10 11 0 5 4 7 10 4 5 -3 -6 21
-24 53 -18 32 -36 70 -39 83 -3 13 -12 49 -20 80 -38 137 -37 317 4 431 31 89
64 140 129 202 66 63 127 95 252 131 160 45 290 63 453 61 l129 -1 27 -75z
m8099 0 c80 -9 176 -32 210 -49 12 -7 16 -45 21 -212 4 -112 10 -244 14 -292
l8 -88 -34 -36 c-40 -42 -150 -115 -198 -131 -19 -7 -60 -12 -91 -12 -51 0
-61 3 -88 31 -53 55 -66 94 -71 209 -4 112 14 429 30 519 5 30 15 58 22 63 16
10 74 10 177 -2z m1270 -188 c0 -16 9 -56 20 -90 40 -122 94 -190 184 -232
l58 -27 -64 -47 c-39 -29 -90 -80 -131 -135 -89 -117 -99 -125 -147 -123 -104
4 -206 117 -217 241 -11 123 54 242 204 373 43 37 81 67 86 68 4 0 7 -13 7
-28z m-9122 -207 c55 -54 63 -73 16 -36 -13 10 -20 22 -16 26 4 5 -2 5 -13 1
-11 -4 -16 -4 -12 0 4 4 -5 20 -20 36 -49 52 -11 29 45 -27z m-118 35 c0 -5
-2 -10 -4 -10 -3 0 -8 5 -11 10 -3 6 -1 10 4 10 6 0 11 -4 11 -10z m10273 -69
c14 -6 37 -22 51 -38 21 -22 25 -34 20 -57 -3 -15 -1 -47 6 -71 12 -42 11 -45
-21 -92 -51 -74 -321 -389 -379 -443 -3 -3 -39 -45 -79 -93 l-74 -88 -35 58
c-66 109 -82 156 -82 240 0 53 7 96 21 137 51 143 238 364 358 424 52 26 77
32 127 32 34 0 74 -4 87 -9z m-10088 -41 c-3 -5 -11 -10 -16 -10 -6 0 -7 5 -4
10 3 6 11 10 16 10 6 0 7 -4 4 -10z m46 -36 l24 -26 -27 12 c-15 7 -29 19 -32
26 -8 22 8 16 35 -12z m8584 -145 c21 -81 54 -139 112 -200 53 -56 136 -109
170 -109 20 0 16 -17 -16 -63 -54 -79 -61 -82 -175 -80 -145 2 -229 37 -281
116 -23 36 -13 102 27 182 49 98 126 206 143 201 5 -1 14 -22 20 -47z m1822
-39 c37 -17 69 -32 71 -35 5 -5 -77 -132 -123 -190 -287 -364 -352 -425 -512
-481 -91 -32 -90 -31 110 204 197 231 357 460 357 512 0 27 19 25 97 -10z
m-1044 -22 c-25 -31 -54 -140 -60 -219 -13 -187 74 -374 196 -421 l26 -9 -33
-30 c-18 -16 -40 -29 -50 -28 -9 0 -56 44 -103 98 -84 94 -219 201 -253 201
-22 0 -21 1 22 72 21 35 52 88 69 118 70 128 105 180 136 204 34 27 67 36 50
14z m-9213 -57 c0 7 10 9 28 4 15 -4 34 -9 42 -10 8 -2 17 -4 20 -5 3 -1 8 -2
12 -1 18 2 121 -62 219 -136 339 -258 725 -495 1144 -702 308 -153 426 -203
710 -297 187 -62 310 -96 392 -109 23 -4 46 -12 51 -18 5 -7 12 -51 15 -98 3
-49 15 -111 27 -145 35 -96 36 -91 -6 -104 -52 -18 -252 -7 -389 20 -187 37
-486 146 -455 165 7 4 15 4 19 -1 9 -14 61 -35 71 -29 5 3 10 0 12 -7 3 -7 10
-8 21 -2 14 8 9 12 -27 23 -29 8 -43 17 -40 25 3 9 -12 18 -43 26 -26 7 -53
17 -58 21 -6 4 -35 17 -65 29 -30 12 -62 27 -70 35 -8 7 -26 16 -40 20 -14 4
-27 10 -30 14 -3 3 -30 19 -60 35 -68 36 -109 67 -109 83 -1 7 -7 10 -15 7 -8
-3 -17 0 -22 7 -5 8 -3 10 7 4 12 -7 12 -5 1 6 -11 12 -14 12 -21 0 -6 -9 -11
-10 -15 -2 -4 6 -4 16 -1 21 3 6 1 10 -4 10 -6 0 -11 -6 -11 -12 0 -9 -3 -8
-10 2 -5 8 -13 15 -17 15 -4 1 -18 6 -31 13 -12 7 -28 10 -34 6 -6 -4 -8 -3
-5 3 7 11 -28 45 -37 36 -3 -4 -6 1 -6 11 0 9 -5 14 -10 11 -6 -3 -13 1 -16 9
-3 9 -10 16 -16 16 -5 0 -15 6 -22 13 -41 39 -71 59 -94 63 l-27 5 25 -27 25
-27 -37 29 c-21 16 -37 36 -37 44 1 11 3 10 6 -2 5 -20 23 -24 23 -5 0 13 -20
47 -20 35 0 -12 -61 14 -84 36 -13 11 -55 51 -95 89 -39 37 -76 67 -83 67 -6
0 -8 3 -5 7 10 9 -13 33 -31 33 -10 0 -7 -8 12 -27 15 -15 32 -36 38 -48 20
-37 -175 148 -707 670 -38 37 -58 61 -42 51 17 -10 27 -12 27 -5z m10613 -72
c45 -11 139 -56 149 -73 13 -19 -22 -204 -51 -271 -5 -11 -17 -38 -26 -60 -65
-154 -176 -328 -248 -391 -48 -41 -154 -96 -227 -118 -30 -10 -63 -22 -73 -27
-24 -13 -25 -13 -42 55 -46 177 0 296 232 604 36 48 99 136 141 195 57 83 78
107 91 101 9 -3 33 -10 54 -15z m-2721 -64 c10 -32 32 -137 49 -234 16 -97 37
-213 44 -259 9 -52 11 -90 6 -100 -31 -57 -115 -92 -220 -92 -58 0 -79 5 -139
35 -82 41 -154 110 -187 178 -34 69 -62 205 -70 335 l-7 114 33 -18 c42 -21
205 -23 259 -2 46 18 150 72 175 92 29 23 38 16 57 -49z m278 -246 c96 -77
334 -130 490 -110 72 9 82 6 175 -58 93 -64 167 -136 245 -236 99 -128 120
-166 120 -216 0 -108 64 -240 161 -334 l68 -66 -90 -117 c-124 -160 -200 -243
-344 -376 -152 -140 -165 -145 -334 -128 -193 19 -496 85 -656 142 -353 126
-471 263 -546 630 -17 83 -27 400 -13 400 7 0 14 -6 17 -14 7 -18 141 -82 199
-96 107 -24 262 -5 358 45 33 18 84 72 105 114 22 43 22 219 0 351 -8 52 -15
99 -15 103 0 10 14 2 60 -34z m-10260 -169 c173 -35 365 -113 553 -224 294
-173 557 -445 727 -752 38 -69 70 -128 70 -130 0 -2 13 -33 30 -69 89 -194
164 -519 191 -830 17 -200 6 -493 -24 -663 -27 -150 -41 -179 -51 -105 -14
102 -28 179 -38 196 -7 15 -5 20 11 24 12 3 21 7 21 9 0 15 -35 167 -56 239
-76 269 -170 437 -325 578 -111 101 -225 158 -392 193 -114 24 -364 19 -537
-11 -427 -73 -911 -282 -1157 -502 -122 -109 -194 -217 -228 -345 -20 -76 -26
-79 -90 -49 -116 53 -251 234 -312 416 -39 114 -63 273 -63 409 0 98 23 288
45 369 38 142 45 165 64 220 31 88 122 272 176 357 195 305 471 534 755 627
165 53 210 61 383 62 113 1 173 -4 247 -19z m12040 -187 c-18 -85 -1 -242 34
-325 8 -18 -15 -31 -135 -78 -29 -12 -76 -32 -104 -44 -98 -45 -199 -77 -223
-71 -56 14 -124 94 -151 176 -12 40 -21 136 -15 164 7 30 79 60 248 105 156
41 277 87 325 122 13 10 26 16 28 14 3 -2 -1 -31 -7 -63z m-8885 -243 c3 -5 1
-10 -4 -10 -6 0 -11 5 -11 10 0 6 2 10 4 10 3 0 8 -4 11 -10z m55 -50 c0 -5
-2 -10 -4 -10 -3 0 -8 5 -11 10 -3 6 -1 10 4 10 6 0 11 -4 11 -10z m160 -121
c0 -6 -16 2 -35 17 -19 14 -35 28 -35 30 0 2 16 -6 35 -17 19 -12 35 -25 35
-30z m3240 -18 c73 -21 132 -43 140 -52 3 -3 21 -11 40 -19 152 -61 410 -273
515 -424 22 -32 57 -80 79 -108 46 -60 40 -68 -48 -63 -34 3 -100 7 -147 10
-48 3 -180 0 -295 -7 -115 -6 -224 -12 -242 -12 -37 -1 -35 -4 -104 184 -11
30 -29 74 -39 97 -11 24 -19 45 -19 48 0 6 -16 41 -87 194 -24 52 -40 98 -35
103 18 18 128 67 152 68 14 0 55 -9 90 -19z m-3199 -8 c13 -15 12 -15 -8 -4
-24 12 -29 21 -14 21 5 0 15 -7 22 -17z m1574 -149 c88 -8 185 -27 185 -36 0
-18 -39 -84 -62 -106 -26 -23 -88 -47 -88 -32 0 11 -30 21 -41 14 -6 -3 -5
-11 2 -20 6 -8 9 -17 7 -20 -17 -16 -68 98 -82 185 -5 29 -4 32 12 26 9 -3 40
-8 67 -11z m-1211 -46 c76 -41 107 -60 102 -65 -2 -2 -12 0 -23 6 -10 5 -43
21 -72 35 -30 14 -51 26 -45 27 5 0 0 4 -11 9 -11 5 -14 9 -6 9 7 1 32 -9 55
-21z m5830 -378 c178 -225 555 -387 1049 -451 83 -11 88 -13 83 -33 -3 -11
-16 -61 -28 -111 -12 -49 -27 -93 -33 -97 -18 -13 -201 -9 -308 7 -101 15
-273 56 -312 75 -11 5 -55 23 -98 41 -251 102 -467 338 -467 511 0 21 6 68 12
103 l13 65 22 -28 c13 -15 43 -52 67 -82z m-521 -33 c-58 -60 -73 -105 -73
-214 0 -110 13 -164 62 -256 95 -178 284 -288 773 -447 190 -61 439 -108 615
-115 105 -4 144 -9 143 -18 -1 -7 -6 -28 -12 -47 -5 -19 -14 -51 -20 -70 -5
-19 -17 -64 -27 -100 -9 -36 -21 -78 -27 -94 l-11 -29 -490 9 c-682 13 -786
11 -871 -11 -249 -63 -453 -268 -550 -553 -25 -73 -23 -74 -97 43 -204 326
-198 568 31 1148 91 231 266 539 364 638 54 56 206 163 216 153 3 -2 -9 -19
-26 -37z m249 -44 c8 -10 20 -36 26 -59 19 -66 90 -203 137 -263 57 -74 135
-148 215 -204 73 -51 214 -127 236 -127 8 0 14 -4 14 -10 0 -5 9 -10 20 -10
22 0 72 -20 81 -33 3 -4 10 -7 15 -5 5 1 40 -6 79 -16 38 -11 65 -21 58 -23
-17 -6 -169 34 -221 58 -26 12 -53 21 -61 20 -7 -1 -10 2 -6 8 3 6 -1 11 -10
11 -25 0 -135 56 -127 65 4 5 -1 5 -10 2 -10 -4 -18 -2 -18 3 0 6 -6 10 -13
10 -8 0 -33 14 -55 30 -23 17 -42 26 -42 21 0 -5 10 -15 23 -24 12 -8 31 -24
42 -34 12 -11 34 -25 50 -31 23 -8 25 -11 10 -11 -11 -1 -27 -6 -35 -12 -11
-8 -5 -9 25 -4 28 4 36 3 25 -4 -8 -5 -12 -11 -10 -13 11 -8 78 -28 93 -28 9
0 17 -4 17 -10 0 -5 7 -10 15 -10 8 0 15 -5 15 -11 0 -6 -8 -8 -17 -5 -10 3
-38 10 -63 16 -25 7 -49 15 -55 19 -5 4 -30 13 -55 20 -142 39 -372 144 -440
201 -59 49 -111 126 -135 199 -21 65 -15 166 13 215 33 57 132 87 164 49z
m-2242 -199 c10 -10 -52 -51 -195 -129 -27 -16 -62 -36 -77 -46 -14 -11 -29
-19 -33 -19 -4 0 -19 -9 -35 -20 l-27 -19 -22 112 c-11 62 -21 114 -21 118 0
3 19 6 42 8 23 1 45 4 48 7 9 10 309 -1 320 -12z m6254 -145 c56 -44 71 -111
37 -163 -42 -64 -123 -76 -181 -27 -32 26 -35 33 -35 84 0 61 18 90 70 113 43
19 79 17 109 -7z m-6082 -66 c79 -60 679 -653 672 -664 -3 -5 -12 -9 -21 -9
-31 0 -187 -81 -256 -134 -251 -189 -579 -628 -718 -961 -43 -105 -67 -288
-49 -390 15 -93 70 -193 141 -259 33 -31 67 -56 75 -56 16 0 16 1 -27 65 -49
75 -69 150 -69 268 0 130 27 242 87 362 132 262 326 535 522 732 96 98 167
151 266 200 58 29 189 62 200 51 4 -3 -22 -42 -58 -85 -68 -85 -121 -182 -143
-266 -16 -60 -19 -203 -4 -212 25 -15 3 -46 -91 -125 -200 -168 -324 -361
-379 -588 -19 -78 -22 -111 -17 -210 6 -153 40 -261 115 -364 18 -27 31 -48
27 -48 -10 0 -168 51 -205 67 -154 65 -322 178 -432 291 -70 71 -307 332 -381
418 -16 19 -16 24 -2 50 8 16 15 36 15 44 0 8 7 34 15 56 16 47 48 161 77 279
10 44 23 96 28 115 36 145 55 267 90 569 6 52 10 218 10 369 l-2 276 161 82
c154 79 252 122 278 123 7 1 41 -20 75 -46z m-6626 -28 c140 -27 270 -79 352
-142 40 -30 94 -102 86 -114 -9 -16 -24 -9 -17 8 4 11 3 14 -5 9 -7 -4 -12 -2
-12 5 0 15 -47 59 -63 59 -8 0 -8 3 2 9 9 6 6 9 -11 9 -23 0 -22 -2 14 -39 22
-22 33 -41 27 -44 -5 -4 -16 -1 -24 5 -12 10 -15 9 -15 -3 0 -9 15 -20 35 -27
19 -6 35 -16 35 -21 0 -5 7 -9 15 -9 8 0 15 -5 15 -11 0 -7 -7 -8 -17 -4 -49
21 -195 69 -248 82 -98 24 -472 29 -630 9 -169 -22 -354 -59 -485 -97 -95 -28
-337 -117 -378 -139 -10 -5 -44 -21 -77 -37 -79 -36 -215 -112 -239 -132 -15
-13 -14 -7 7 35 30 59 172 198 194 190 8 -3 11 -1 8 4 -15 24 285 182 465 245
378 131 758 190 966 150z m9349 -285 c18 -8 17 -9 -7 -9 -15 -1 -30 4 -33 9
-7 12 12 12 40 0z m72 -26 c-3 -3 -12 -4 -19 -1 -8 3 -5 6 6 6 11 1 17 -2 13
-5z m230 -10 c-3 -3 -12 -4 -19 -1 -8 3 -5 6 6 6 11 1 17 -2 13 -5z m46 -11
c-7 -2 -19 -2 -25 0 -7 3 -2 5 12 5 14 0 19 -2 13 -5z m60 -10 c-7 -2 -19 -2
-25 0 -7 3 -2 5 12 5 14 0 19 -2 13 -5z m257 -7 c0 -21 -17 -29 -23 -12 -3 8
-16 16 -29 19 -15 3 -10 5 15 6 26 1 37 -3 37 -13z m-363 -22 c-3 -3 -12 -4
-19 -1 -8 3 -5 6 6 6 11 1 17 -2 13 -5z m-9577 -24 c267 -33 413 -132 469
-320 100 -337 211 -1118 211 -1491 l0 -145 -62 -1 c-35 -1 -94 -6 -133 -11
-55 -8 -77 -7 -100 4 -16 7 -68 24 -115 36 -122 32 -390 31 -534 -1 -387 -88
-727 -291 -927 -555 -61 -79 -135 -224 -158 -306 -7 -25 -17 -55 -22 -68 -5
-13 -9 -36 -9 -52 0 -36 -16 -48 -25 -18 -4 13 -20 50 -35 83 -25 55 -49 109
-70 160 -8 17 -23 64 -60 181 -6 17 -10 58 -10 92 0 53 6 73 41 139 124 234
428 531 739 724 87 53 338 179 359 179 6 0 19 4 29 9 32 18 146 50 257 72 91
18 130 21 230 16 198 -10 337 -56 464 -155 31 -24 57 -39 59 -33 6 17 -45 105
-83 143 -42 43 -137 108 -157 108 -8 0 -18 4 -23 8 -12 10 -61 26 -135 43 -81
20 -364 17 -460 -5 -373 -84 -750 -302 -1084 -626 -126 -122 -215 -227 -291
-343 -21 -31 -40 -55 -42 -53 -2 2 -11 28 -19 57 -9 30 -19 68 -24 84 -5 17
-23 82 -40 145 -18 63 -36 129 -40 145 -75 270 -240 1003 -240 1064 0 28 -4
25 170 144 374 258 630 381 986 473 246 64 374 82 599 83 110 1 239 -4 285 -9z
m9748 3 c-15 -2 -42 -2 -60 0 -18 2 -6 4 27 4 33 0 48 -2 33 -4z m-2265 -615
c9 -38 57 -202 66 -223 46 -109 122 -231 212 -342 58 -70 67 -90 51 -109 -5
-5 -16 -34 -26 -64 -9 -30 -20 -61 -24 -67 -9 -14 -172 147 -277 272 -89 106
-107 156 -108 290 -1 117 12 164 64 235 27 36 35 37 42 8z m2002 -108 c215 -5
694 -14 1065 -20 2167 -33 2178 -33 2250 -64 43 -18 70 -46 106 -111 25 -45
28 -62 32 -168 3 -69 0 -143 -7 -180 -15 -75 -48 -214 -67 -282 -95 -337 -97
-344 -163 -555 -22 -69 -49 -156 -61 -195 -116 -382 -541 -1653 -688 -2060
-22 -60 -47 -130 -56 -155 -9 -25 -20 -54 -25 -65 -5 -11 -32 -78 -61 -149
-148 -360 -307 -538 -540 -601 -32 -9 -142 -19 -260 -25 -113 -5 -295 -15
-405 -20 -110 -6 -299 -15 -420 -20 -121 -5 -310 -14 -420 -20 -110 -6 -288
-15 -395 -20 -107 -5 -285 -14 -395 -20 -110 -5 -299 -14 -420 -20 -255 -12
-562 -27 -825 -41 -291 -14 -683 -22 -735 -15 -61 10 -124 66 -155 139 -19 42
-23 70 -22 147 0 90 14 195 32 250 5 14 18 59 30 100 12 41 26 86 30 100 5 14
23 72 40 130 17 58 35 114 39 125 8 19 27 82 72 230 11 39 29 95 39 125 10 30
32 102 50 160 17 58 35 116 40 130 5 14 23 72 40 130 17 58 36 113 41 122 5
10 9 27 9 37 0 11 5 23 10 26 6 3 10 13 10 22 0 15 45 163 119 393 21 63 43
133 49 155 14 47 82 263 122 385 15 47 37 119 50 160 12 41 26 84 30 95 5 11
27 81 50 155 24 74 50 160 60 190 10 30 37 116 60 190 89 282 173 530 190 562
6 10 10 22 10 28 0 5 12 35 26 67 14 32 33 74 42 93 28 62 108 174 155 217 56
52 136 103 197 127 94 37 144 38 1025 16z m-2341 -627 c12 -130 53 -283 99
-363 11 -19 25 -44 31 -55 34 -63 116 -163 192 -233 l87 -80 -18 -54 c-10 -29
-21 -61 -26 -70 -5 -10 -9 -25 -9 -33 0 -8 -4 -23 -9 -33 -5 -9 -15 -36 -21
-58 -21 -71 -23 -72 -86 -28 -184 126 -300 305 -343 529 -12 61 -21 122 -21
138 0 34 -13 35 -28 2 -48 -105 -9 -346 82 -509 62 -111 220 -261 311 -296 27
-10 34 -30 10 -30 -21 0 -180 85 -235 125 -83 61 -210 216 -269 327 -75 144
-81 332 -14 488 53 124 103 200 174 264 74 67 85 63 93 -31z m251 -105 c51
-103 138 -232 203 -300 l35 -37 -19 -67 -18 -67 -80 84 c-45 46 -92 104 -105
129 -105 197 -122 253 -102 320 6 22 17 40 24 39 7 0 35 -46 62 -101z m239
-111 c58 -60 64 -71 46 -82 -16 -10 -36 11 -111 116 -76 108 -90 138 -30 69
21 -25 64 -71 95 -103z m-1917 -171 c4 -8 58 -65 118 -128 61 -62 148 -155
194 -206 46 -50 114 -116 150 -146 63 -52 224 -156 240 -156 4 0 21 -6 37 -14
68 -32 103 -46 179 -70 86 -27 268 -66 308 -66 13 0 32 -9 42 -20 34 -37 165
-121 259 -165 l95 -45 -19 -47 c-10 -27 -33 -93 -50 -148 -37 -122 -103 -330
-140 -445 -15 -47 -42 -132 -60 -190 -18 -58 -45 -143 -61 -190 -15 -47 -42
-132 -59 -190 -61 -200 -73 -230 -91 -230 -5 0 -29 -9 -51 -20 -23 -11 -47
-20 -54 -20 -6 0 -33 -9 -60 -19 -27 -11 -76 -29 -109 -41 -33 -12 -69 -26
-80 -30 -18 -8 -116 -40 -120 -40 -2 0 -40 62 -85 138 -277 459 -578 792 -999
1107 -59 44 -137 106 -173 139 l-65 58 22 45 c13 24 29 52 37 61 15 17 139
218 186 302 102 179 277 534 358 723 29 69 37 77 51 53z m-5533 -347 c123 -18
123 -18 -8 -147 -91 -90 -122 -114 -148 -117 -176 -22 -364 -77 -488 -143
-106 -57 -171 -105 -251 -188 -120 -124 -190 -243 -241 -414 -26 -84 -35 -291
-19 -398 23 -144 93 -341 151 -423 12 -16 20 -32 17 -35 -10 -11 -137 60 -175
98 -36 36 -122 188 -122 217 0 6 -4 19 -9 29 -12 23 -26 60 -41 102 -7 19 -16
44 -21 55 -4 11 -18 58 -31 105 -18 70 -22 112 -23 235 0 143 2 155 33 252 91
278 272 471 588 627 125 61 281 109 469 144 72 14 232 14 319 1z m676 -124
c173 -18 509 -74 565 -95 11 -4 56 -15 100 -24 44 -8 139 -30 210 -46 72 -17
146 -35 165 -39 19 -5 71 -18 115 -30 44 -12 105 -29 135 -37 145 -39 401
-122 414 -135 6 -5 0 -19 -14 -34 -29 -30 -199 -148 -282 -195 -32 -17 -58
-36 -58 -41 0 -12 9 -11 61 4 24 8 46 14 49 14 3 0 23 6 45 13 73 23 169 77
265 147 125 91 139 96 252 91 92 -5 168 -25 262 -67 25 -12 58 -27 73 -33 26
-11 24 -12 -37 -18 -73 -7 -79 -9 -169 -52 -75 -37 -206 -161 -268 -253 -85
-128 -146 -266 -185 -415 -17 -70 -21 -115 -22 -255 -1 -186 7 -241 56 -367
47 -123 132 -231 222 -281 20 -10 19 -12 -14 -18 -19 -3 -69 -13 -110 -22
-386 -79 -1080 -78 -1665 3 -104 15 -245 40 -285 50 -19 5 -62 16 -95 24 -221
54 -368 111 -495 192 -142 90 -277 281 -332 469 -20 71 -23 101 -23 270 1 204
9 261 61 407 68 189 186 383 270 441 59 40 189 50 549 42 278 -6 351 -3 340
16 -3 4 -17 4 -30 -1 -14 -5 -25 -6 -25 -1 0 5 5 11 12 13 25 9 -468 55 -634
60 -38 1 -68 6 -68 11 0 15 132 147 179 177 43 29 49 30 155 30 61 0 176 -7
256 -15z m-981 -382 c-19 -23 -89 -139 -89 -148 0 -4 -15 -37 -34 -75 -102
-202 -149 -520 -113 -755 39 -249 141 -450 327 -642 39 -39 70 -74 70 -77 0
-9 -110 4 -170 19 -156 41 -246 97 -366 225 -166 178 -259 328 -305 495 -18
63 -22 106 -22 205 0 147 23 244 82 355 102 192 288 336 503 391 35 8 77 19
93 23 37 9 42 6 24 -16z m4731 -228 c88 -21 158 -55 199 -99 l35 -36 -130 0
c-105 0 -145 -4 -214 -23 -148 -41 -272 -117 -376 -230 -39 -42 -86 -78 -139
-108 -253 -140 -357 -415 -256 -674 46 -116 79 -164 193 -280 65 -66 118 -121
118 -123 0 -8 -63 -24 -129 -33 -118 -14 -325 19 -438 71 -24 11 -45 20 -48
20 -3 0 -38 22 -78 49 -150 102 -238 223 -293 401 -26 83 -15 313 17 372 5 10
9 25 9 34 0 9 19 55 42 102 35 72 58 103 133 177 106 106 190 154 371 215 178
58 570 155 709 173 74 10 215 5 275 -8z m-1262 -71 c18 -8 32 -17 32 -19 0 -2
-40 -33 -89 -69 -218 -163 -342 -348 -391 -587 -25 -119 -23 -258 5 -364 20
-75 98 -234 136 -276 16 -18 26 -35 24 -39 -3 -5 -27 -7 -53 -6 -53 2 -121 33
-166 74 -28 27 -96 124 -101 146 -1 6 -9 27 -18 47 -9 20 -19 67 -22 105 -4
38 -11 84 -17 103 -13 42 -11 203 3 256 63 240 128 369 252 502 64 68 103 95
175 124 61 23 186 25 230 3z m1462 -215 c38 -9 129 -64 130 -79 0 -3 -24 -16
-53 -29 -28 -13 -82 -42 -119 -65 -56 -33 -68 -45 -67 -66 0 -14 -3 -37 -7
-53 -5 -22 -3 -26 9 -21 14 5 15 1 7 -26 -15 -52 20 -34 48 25 29 60 73 94
161 123 137 46 202 26 403 -125 107 -80 344 -300 335 -310 -3 -2 -20 5 -38 16
-42 24 -205 61 -268 61 -101 0 -208 -30 -258 -74 -29 -25 -52 -85 -46 -120 4
-17 1 -31 -7 -36 -8 -5 -10 -15 -5 -26 5 -14 9 -15 12 -6 8 22 48 61 94 92 44
29 45 30 185 30 160 0 259 -19 379 -74 89 -41 153 -103 271 -262 98 -131 246
-378 274 -456 9 -26 20 -51 23 -55 13 -12 7 -71 -7 -76 -13 -5 -45 1 -105 19
-13 4 -49 19 -80 34 -58 29 -65 35 -298 285 -117 125 -244 249 -460 449 -41
37 -50 29 -25 -21 30 -58 92 -133 279 -339 273 -301 323 -371 323 -457 0 -56
-17 -71 -73 -65 -96 11 -221 95 -400 268 -156 151 -356 376 -443 500 -131 187
-359 423 -512 531 -163 115 -261 192 -261 205 -1 17 69 77 135 116 129 75 343
115 464 87z m-691 -383 c9 -11 3 -19 -32 -39 -64 -38 -170 -149 -199 -209 -14
-29 -29 -74 -32 -100 -12 -81 -30 -58 -23 30 7 115 32 187 81 240 64 70 176
113 205 78z m220 -148 c46 -22 215 -182 259 -245 l23 -33 -43 0 c-52 0 -133
-21 -191 -49 -94 -46 -195 -182 -207 -281 l-5 -44 -86 84 c-107 106 -129 149
-129 254 0 65 5 87 30 140 34 69 105 145 165 175 54 27 127 27 184 -1z m391
-443 c63 -34 286 -251 394 -385 85 -106 119 -171 120 -231 2 -89 -43 -106
-199 -74 -88 18 -118 30 -250 97 -214 108 -399 234 -448 305 -60 87 -16 235
87 291 52 28 68 31 156 29 72 -3 94 -8 140 -32z m-5436 -116 c78 -7 78 -7 135
-63 116 -116 241 -188 376 -219 229 -53 342 -50 485 15 71 32 67 32 215 -13
126 -39 323 -74 610 -109 50 -6 108 -13 130 -15 105 -13 528 -35 675 -35 453
0 987 73 1204 164 22 9 46 14 53 11 8 -2 11 0 8 5 -12 20 17 9 74 -27 94 -60
98 -64 56 -47 -48 20 -68 22 -75 9 -3 -5 11 -14 30 -20 19 -6 51 -19 70 -30
19 -11 49 -25 65 -32 50 -19 12 -14 -50 7 -89 30 -136 26 -282 -26 -153 -54
-377 -104 -603 -135 -144 -20 -210 -22 -530 -23 -340 -1 -502 7 -705 34 -38 5
-110 14 -160 21 -49 6 -155 23 -235 36 -361 60 -387 63 -397 36 -12 -31 110
-109 232 -147 154 -47 438 -97 696 -122 249 -23 859 -15 1074 14 353 49 569
110 803 230 55 27 98 42 125 43 23 1 56 5 72 9 25 6 27 8 13 14 -26 12 -11 27
15 17 110 -42 288 -75 412 -75 124 -1 198 15 300 65 l64 31 58 -44 c54 -42
169 -118 177 -118 2 0 40 -20 84 -45 76 -43 261 -123 347 -150 37 -11 38 -13
15 -18 -14 -3 -106 -8 -205 -11 -99 -3 -265 -10 -370 -16 -104 -5 -278 -14
-385 -20 -107 -5 -271 -14 -365 -19 -93 -6 -255 -15 -360 -20 -298 -16 -323
-22 -367 -83 -21 -30 -23 -43 -23 -153 0 -105 3 -127 24 -175 13 -30 33 -65
44 -77 l20 -22 -1277 0 -1276 0 -114 132 c-133 154 -252 277 -351 363 -195
169 -236 208 -306 285 -103 116 -154 178 -241 294 -82 110 -198 280 -198 291
0 3 8 3 18 -1 9 -5 52 -12 96 -16z m7513 -276 c-3 -5 -14 -40 -26 -79 -17 -58
-26 -73 -44 -78 -32 -8 -207 -10 -214 -2 -10 9 29 35 53 36 12 0 28 8 35 17
13 15 12 16 -11 9 -14 -5 -40 -10 -57 -13 -31 -5 -40 -19 -34 -55 0 -5 -6 -8
-15 -8 -11 0 -14 8 -12 31 3 30 8 33 112 75 60 24 126 47 148 50 21 4 41 11
44 15 3 5 10 9 15 9 6 0 8 -3 6 -7z m-86 -324 c-7 -54 -16 -59 -99 -59 -42 0
-115 -3 -162 -6 l-85 -6 32 31 c39 36 83 49 206 60 113 10 113 10 108 -20z
m-1236 -22 c22 -11 52 -29 68 -41 l29 -21 -29 -6 c-15 -4 -59 -7 -98 -8 -38
-1 -87 -6 -109 -10 l-38 -9 26 27 c14 15 26 31 26 35 0 4 10 21 23 36 24 31
35 31 102 -3z m650 -47 c15 -7 9 -9 -25 -9 -25 -1 -56 -4 -70 -8 -22 -6 -24
-5 -11 10 14 18 71 22 106 7z m539 -102 c-4 -6 -12 -39 -18 -72 l-11 -60
-1003 -2 c-552 -1 -1000 2 -995 6 8 9 191 25 383 35 63 3 185 10 270 15 85 6
286 17 445 25 160 9 340 20 400 25 61 6 175 15 255 21 80 6 147 13 149 15 2 2
33 4 68 4 47 0 62 -3 57 -12z m-763 -244 l707 -7 4 -71 c5 -80 44 -179 84
-217 35 -33 30 -40 -23 -35 -27 3 -181 10 -343 16 -162 6 -410 15 -550 20
-562 21 -1113 41 -1655 60 -362 13 -657 26 -903 42 -210 13 -198 6 -208 117
l-7 71 164 1 c90 1 252 5 359 9 196 8 1066 5 2371 -6z m-4766 -550 l160 -7
115 -113 115 -114 -1795 0 c-987 0 -1806 -3 -1820 -6 -25 -7 -25 -7 -5 13 11
11 45 33 75 49 30 16 57 31 60 34 5 5 53 28 85 40 72 28 137 51 181 65 133 42
157 43 1439 44 677 0 1302 -2 1390 -5z m10229 -22 c145 -38 307 -108 414 -178
59 -40 67 -57 20 -43 -20 5 -764 9 -1862 9 -1621 0 -1827 2 -1822 15 21 51 21
51 3 36 -9 -7 -15 -17 -12 -21 20 -33 6 -33 -2328 -25 -1266 4 -2737 9 -3269
11 l-967 2 -43 40 c-24 22 -54 49 -68 61 -21 18 -23 22 -10 31 13 10 13 10 -1
8 -14 -3 -79 43 -79 56 0 3 1549 5 3443 5 1893 1 3748 4 4122 8 374 5 1060 8
1525 8 l845 0 89 -23z"/>
<path d="M10380 16171 c0 -8 47 -52 101 -95 83 -65 208 -133 394 -216 178 -79
446 -125 521 -89 48 24 39 36 -33 42 -108 10 -226 44 -448 129 -148 56 -153
59 -368 162 -87 42 -160 76 -162 76 -3 0 -5 -4 -5 -9z"/>
<path d="M6805 13360 c-16 -7 -17 -9 -3 -9 9 -1 20 4 23 9 7 11 7 11 -20 0z"/>
<path d="M5937 14413 c-23 -22 -1 -130 59 -290 44 -120 66 -149 116 -157 l37
-7 -19 38 c-27 57 -38 83 -53 138 -8 28 -31 95 -52 150 -43 116 -67 150 -88
128z"/>
<path d="M9420 14839 c-116 -9 -261 -41 -330 -71 -124 -56 -156 -71 -204 -102
-252 -163 -462 -482 -611 -930 -187 -565 -161 -934 92 -1326 290 -448 902
-837 1589 -1009 292 -73 498 -95 814 -88 247 6 379 25 538 77 385 127 628 415
807 955 93 280 170 600 204 845 6 41 16 113 23 160 7 47 12 180 12 295 1 198
-1 214 -23 270 -95 240 -332 425 -706 550 -111 37 -158 50 -410 110 -156 37
-302 68 -550 115 -344 65 -444 83 -560 101 -38 6 -97 15 -130 20 -79 12 -382
39 -420 38 -16 -1 -77 -6 -135 -10z m335 -724 c147 -70 274 -222 336 -402 111
-322 45 -685 -164 -910 -190 -202 -391 -277 -620 -228 -209 44 -406 224 -477
436 -55 163 -50 327 18 544 19 61 92 202 140 270 89 127 235 249 354 296 81
32 124 38 233 35 93 -2 107 -5 180 -41z m2057 -628 c53 -31 129 -111 156 -163
11 -22 31 -73 43 -114 21 -66 24 -94 23 -230 0 -125 -4 -172 -22 -245 -39
-155 -79 -248 -159 -372 -127 -195 -290 -301 -450 -291 -167 10 -282 138 -320
359 -14 81 -14 110 -4 209 33 300 152 573 323 738 82 79 142 115 223 136 48
12 145 -2 187 -27z"/>
<path d="M5345 11235 c17 -14 36 -25 43 -25 6 0 12 -7 12 -15 0 -8 9 -19 20
-25 11 -6 20 -8 20 -5 0 3 10 -3 22 -15 12 -11 28 -20 35 -20 8 0 11 -5 7 -12
-4 -6 -3 -8 4 -4 6 3 15 -2 21 -11 5 -10 12 -16 14 -13 14 14 -86 95 -103 85
-5 -3 -8 0 -5 7 3 8 -18 25 -58 45 -54 28 -58 29 -32 8z"/>
<path d="M5695 10950 c-4 -6 1 -7 11 -3 14 5 16 3 10 -13 -5 -14 -4 -16 5 -7
12 12 5 33 -11 33 -5 0 -12 -4 -15 -10z"/>
<path d="M5747 10889 c7 -7 15 -10 18 -7 3 3 -2 9 -12 12 -14 6 -15 5 -6 -5z"/>
<path d="M5780 10869 c0 -5 5 -7 10 -4 6 3 10 8 10 11 0 2 -4 4 -10 4 -5 0
-10 -5 -10 -11z"/>
<path d="M8735 8978 c-11 -6 -26 -18 -32 -26 -26 -32 -9 -322 22 -382 7 -14
25 -36 40 -50 l27 -25 396 -3 c405 -3 583 6 621 29 35 22 51 70 51 151 -1 99
-16 212 -35 251 -32 69 -18 67 -572 67 -341 -1 -504 -4 -518 -12z m971 -104
c18 -5 24 -17 33 -80 6 -41 11 -98 11 -127 l0 -52 -317 -3 c-175 -1 -379 -5
-453 -8 -116 -5 -138 -4 -149 9 -13 16 -42 233 -34 255 4 9 103 12 447 12 242
0 451 -3 462 -6z"/>
<path d="M6432 8855 c0 -16 2 -22 5 -12 2 9 2 23 0 30 -3 6 -5 -1 -5 -18z"/>
<path d="M6421 8784 c-11 -42 -41 -181 -41 -192 0 -3 4 -2 10 4 5 5 14 41 20
79 5 39 14 85 20 104 5 19 8 37 5 39 -2 2 -8 -13 -14 -34z"/>
<path d="M6267 8289 c-16 -22 -27 -45 -25 -51 3 -7 17 9 32 35 35 59 31 69 -7
16z"/>
<path d="M6226 8211 c-4 -7 -5 -15 -2 -18 9 -9 19 4 14 18 -4 11 -6 11 -12 0z"/>
<path d="M6750 11862 c0 -15 8 -24 25 -28 14 -3 23 -10 20 -14 -3 -5 -2 -11 3
-14 4 -2 9 6 10 20 1 13 -3 24 -10 24 -6 0 -20 7 -30 17 -17 15 -18 15 -18 -5z"/>
<path d="M6825 11820 c3 -5 8 -10 11 -10 2 0 4 5 4 10 0 6 -5 10 -11 10 -5 0
-7 -4 -4 -10z"/>
<path d="M6820 11790 c0 -5 5 -10 11 -10 5 0 7 5 4 10 -3 6 -8 10 -11 10 -2 0
-4 -4 -4 -10z"/>
<path d="M7430 11328 c0 -64 112 -215 208 -282 90 -62 66 7 -53 158 -36 46
-86 98 -111 115 -43 32 -44 32 -44 9z"/>
<path d="M8020 10866 c0 -16 58 -93 96 -126 42 -36 161 -113 224 -145 30 -14
63 -31 73 -36 112 -59 408 -106 505 -80 63 18 57 34 -20 50 -24 6 -77 17 -118
26 -146 31 -423 151 -645 279 -81 47 -115 57 -115 32z"/>
<path d="M4277 11129 c-171 -23 -352 -110 -522 -249 -70 -58 -257 -242 -263
-260 -8 -23 19 -5 113 76 295 254 512 354 766 354 59 0 132 -5 161 -11 203
-41 381 -151 578 -355 142 -147 225 -250 460 -569 114 -154 185 -234 238 -267
25 -15 36 -18 42 -9 7 12 49 9 103 -6 34 -9 17 23 -22 41 -77 33 -155 126
-386 458 -167 240 -431 515 -607 633 -83 56 -180 105 -263 133 -93 32 -284 47
-398 31z"/>
<path d="M13970 9596 c0 -2 7 -7 16 -10 8 -3 12 -2 9 4 -6 10 -25 14 -25 6z"/>
<path d="M14267 9553 c-4 -3 -7 -11 -7 -17 0 -6 5 -5 12 2 6 6 9 14 7 17 -3 3
-9 2 -12 -2z"/>
<path d="M14187 9489 c7 -7 15 -10 18 -7 3 3 -2 9 -12 12 -14 6 -15 5 -6 -5z"/>
<path d="M14338 9433 c7 -3 16 -2 19 1 4 3 -2 6 -13 5 -11 0 -14 -3 -6 -6z"/>
<path d="M5478 9403 c7 -3 16 -2 19 1 4 3 -2 6 -13 5 -11 0 -14 -3 -6 -6z"/>
<path d="M5578 9383 c7 -3 16 -2 19 1 4 3 -2 6 -13 5 -11 0 -14 -3 -6 -6z"/>
<path d="M3790 9166 c0 -2 7 -7 16 -10 8 -3 12 -2 9 4 -6 10 -25 14 -25 6z"/>
<path d="M3753 9131 c1 -4 -12 -20 -29 -34 -18 -15 -34 -37 -37 -49 -5 -19 -3
-18 21 8 15 16 37 38 50 50 20 18 21 22 8 27 -9 4 -15 3 -13 -2z"/>
<path d="M4945 8971 c-135 -35 -286 -95 -425 -168 -173 -91 -190 -127 -25 -53
50 22 96 40 103 40 7 0 20 4 30 9 21 10 46 19 237 82 83 28 184 59 225 70 84
23 90 26 70 39 -26 17 -102 10 -215 -19z"/>
<path d="M14000 8390 c-66 -10 -89 -22 -156 -84 -91 -83 -163 -213 -240 -439
-19 -56 -39 -111 -44 -122 -6 -16 -71 -217 -123 -385 -6 -19 -15 -39 -19 -45
-4 -5 -8 -16 -8 -25 0 -8 -13 -55 -29 -105 -16 -49 -48 -151 -71 -225 -23 -74
-59 -187 -80 -250 -37 -111 -46 -141 -111 -355 -17 -55 -35 -109 -39 -120 -4
-11 -27 -81 -50 -155 -23 -74 -46 -146 -50 -160 -5 -14 -27 -86 -50 -160 -23
-74 -54 -175 -70 -225 -15 -49 -42 -135 -58 -190 -17 -55 -47 -154 -67 -220
-20 -66 -41 -133 -45 -150 -5 -16 -18 -60 -29 -98 -12 -37 -30 -95 -40 -130
-51 -164 -130 -442 -186 -652 -14 -49 -27 -124 -30 -165 -7 -84 2 -110 48
-144 37 -27 42 -17 51 91 3 47 16 125 27 172 22 90 133 488 149 531 5 14 23
72 40 130 17 58 35 116 40 130 4 14 18 59 30 100 12 41 35 115 51 164 16 49
29 97 29 107 0 10 5 21 10 24 6 3 10 15 10 26 0 10 4 27 9 37 8 16 18 47 72
227 11 39 24 81 29 95 9 26 80 252 150 480 23 74 50 160 60 190 10 30 28 87
39 125 50 161 87 279 132 420 27 83 58 177 68 210 82 265 237 740 251 770 5
11 18 49 30 85 12 36 43 108 68 160 53 109 146 212 222 247 146 65 170 77 170
85 0 9 -125 8 -190 -2z"/>
<path d="M15670 6770 c-121 -7 -167 -20 -227 -66 -74 -56 -188 -268 -257 -477
-84 -254 -99 -529 -36 -676 25 -58 80 -114 135 -137 88 -36 335 -28 490 18 96
28 134 49 181 100 200 217 302 832 183 1108 -25 59 -94 124 -140 134 -36 7
-164 6 -329 -4z m360 -127 c94 -104 91 -503 -5 -798 -38 -118 -103 -243 -140
-269 -83 -60 -214 -89 -410 -90 -185 -1 -215 15 -251 132 -17 56 -19 285 -4
364 27 138 52 225 92 328 132 334 185 370 551 366 l139 -1 28 -32z"/>
<path d="M12783 7515 c0 -8 4 -12 9 -9 5 3 6 10 3 15 -9 13 -12 11 -12 -6z"/>
<path d="M12887 7456 c-4 -10 -1 -13 8 -9 8 3 12 9 9 14 -7 12 -11 11 -17 -5z"/>
<path d="M4772 6931 c-92 -32 -118 -71 -129 -196 -8 -102 13 -100 43 5 11 41
83 137 125 166 66 45 51 55 -39 25z"/>
<path d="M5066 6492 c-167 -88 -295 -294 -313 -506 -10 -122 33 -263 110 -358
17 -21 34 -38 38 -38 4 0 -6 31 -22 68 -37 90 -53 194 -46 312 10 170 71 298
214 450 53 55 94 103 92 105 -2 2 -35 -13 -73 -33z"/>
<path d="M4860 5947 c0 -36 4 -69 10 -72 11 -7 7 121 -4 132 -3 3 -6 -23 -6
-60z"/>
<path d="M4861 5824 c0 -11 3 -14 6 -6 3 7 2 16 -1 19 -3 4 -6 -2 -5 -13z"/>
<path d="M8192 5530 c0 -19 2 -27 5 -17 2 9 2 25 0 35 -3 9 -5 1 -5 -18z"/>
<path d="M8112 5460 c0 -14 2 -19 5 -12 2 6 2 18 0 25 -3 6 -5 1 -5 -13z"/>
<path d="M8100 5243 c0 -6 5 -15 11 -18 6 -4 8 -13 5 -20 -2 -7 5 -28 17 -46
12 -19 21 -37 22 -41 0 -3 3 -9 7 -13 11 -12 3 18 -15 54 -9 18 -15 36 -13 40
3 4 -4 18 -15 31 -10 14 -19 20 -19 13z"/>
<path d="M8195 5074 c9 -9 19 -13 23 -10 3 4 0 11 -8 16 -24 15 -33 11 -15 -6z"/>
<path d="M8227 5057 c-4 -12 2 -21 23 -32 17 -9 30 -11 30 -5 0 5 -6 10 -13
10 -8 0 -18 10 -24 22 -8 19 -10 19 -16 5z"/>
<path d="M8330 5012 c0 -5 9 -12 21 -15 13 -3 19 -1 16 6 -5 15 -37 22 -37 9z"/>
<path d="M8559 4718 c-12 -23 -12 -23 10 -4 23 21 26 26 11 26 -5 0 -15 -10
-21 -22z"/>
<path d="M8488 4723 c7 -3 16 -2 19 1 4 3 -2 6 -13 5 -11 0 -14 -3 -6 -6z"/>
<path d="M11974 4668 c10 -6 22 -6 26 -2 5 5 -3 10 -18 11 -22 1 -24 0 -8 -9z"/>
<path d="M10748 4386 c-29 -22 -21 -32 22 -28 26 3 40 9 40 18 0 8 -4 14 -9
14 -5 0 -15 2 -23 5 -7 2 -21 -2 -30 -9z"/>
<path d="M13537 3383 c-15 -32 -15 -35 -1 -18 24 30 36 55 26 55 -4 0 -16 -17
-25 -37z"/>
<path d="M17172 17973 c-11 -16 -29 -50 -41 -78 -51 -116 -79 -163 -134 -222
-121 -129 -233 -177 -449 -193 -78 -6 -149 -13 -157 -16 -22 -7 -3 -20 84 -54
264 -104 473 -257 541 -396 23 -47 29 -75 33 -157 8 -145 17 -142 94 33 40 91
147 201 262 271 109 66 288 128 372 129 80 1 33 42 -79 70 -101 25 -122 32
-213 76 -68 33 -204 157 -241 220 -41 70 -57 140 -51 224 3 41 9 85 12 98 10
31 -9 28 -33 -5z m216 -608 l82 -48 -73 -42 c-95 -54 -151 -92 -222 -154 l-58
-49 -31 41 c-63 88 -213 218 -300 260 l-41 21 42 12 c86 25 179 79 273 157
l54 45 96 -97 c68 -70 119 -112 178 -146z"/>
<path d="M13245 17854 c-180 -44 -328 -178 -403 -366 -6 -14 -16 -62 -23 -106
-29 -189 51 -406 202 -547 72 -68 113 -97 184 -133 152 -76 230 -95 385 -96
155 -1 229 14 346 69 75 36 102 56 159 116 199 212 200 493 2 754 -84 111
-213 207 -372 276 -11 5 -56 18 -100 29 -97 24 -288 26 -380 4z m385 -184
c203 -68 351 -211 396 -384 24 -90 14 -217 -22 -290 -79 -162 -313 -260 -512
-215 -219 49 -364 152 -451 321 -126 244 2 534 259 588 76 16 256 5 330 -20z"/>
<path d="M5259 17036 c-57 -15 -138 -66 -166 -103 -49 -68 -65 -113 -65 -192
0 -155 86 -270 237 -318 140 -44 305 28 371 162 59 121 38 245 -58 350 -56 62
-88 81 -163 101 -61 17 -96 17 -156 0z m130 -156 c97 -27 150 -147 102 -226
-35 -58 -81 -84 -145 -84 -55 0 -59 2 -106 50 -48 47 -50 51 -50 106 0 69 30
116 94 145 47 22 59 23 105 9z"/>
<path d="M15725 16191 c-105 -35 -187 -110 -233 -209 -23 -51 -26 -70 -26
-177 -1 -125 3 -143 53 -244 28 -57 120 -150 174 -175 48 -23 146 -46 192 -46
193 0 354 97 432 259 35 72 37 81 38 176 0 94 -2 104 -34 170 -59 121 -174
214 -312 250 -74 20 -221 18 -284 -4z m239 -153 c45 -13 132 -64 158 -94 32
-36 59 -112 59 -167 2 -141 -132 -261 -291 -261 -105 0 -198 71 -241 183 -50
132 15 292 134 335 52 18 127 20 181 4z"/>
<path d="M5123 15456 c-658 -383 -1329 -1002 -1804 -1666 -112 -156 -176 -257
-293 -460 -46 -79 -204 -404 -212 -434 -14 -57 18 -21 101 117 90 145 231 354
345 507 132 177 275 362 350 451 30 36 75 90 100 120 190 228 595 639 840 853
154 135 356 298 545 441 161 121 166 125 140 125 -11 -1 -62 -25 -112 -54z"/>
<path d="M3382 15431 c-18 -5 -54 -23 -80 -41 -154 -105 -173 -288 -44 -423
56 -58 105 -80 194 -85 69 -4 84 -2 132 22 213 104 219 373 12 503 -42 27
-153 39 -214 24z m167 -185 c83 -85 27 -215 -92 -216 -69 0 -127 61 -127 134
0 27 9 44 38 76 36 37 43 40 93 40 49 0 58 -3 88 -34z"/>
<path d="M15770 14882 c0 -4 66 -66 146 -137 315 -278 626 -634 854 -975 46
-69 104 -154 130 -190 26 -36 62 -94 81 -129 67 -128 179 -208 324 -231 196
-31 389 103 435 302 32 142 -17 306 -123 412 -154 153 -405 149 -562 -8 -65
-64 -106 -150 -113 -233 -2 -34 -8 -61 -12 -58 -4 2 -15 25 -25 51 -28 73
-161 284 -268 424 -252 328 -505 565 -790 739 -71 43 -77 46 -77 33z m1644
-1014 c99 -29 175 -159 163 -277 -8 -71 -27 -110 -77 -155 -48 -43 -74 -51
-165 -51 -65 0 -75 3 -120 36 -28 19 -63 57 -80 84 -27 44 -30 56 -30 134 0
76 3 91 27 127 61 94 172 134 282 102z"/>
<path d="M2367 14546 c-151 -54 -240 -162 -268 -327 -38 -230 96 -455 307
-517 67 -19 185 -15 249 9 77 29 175 121 215 203 99 202 39 452 -140 574 -70
48 -93 58 -158 71 -80 16 -130 13 -205 -13z m232 -175 c103 -53 167 -192 142
-305 -25 -111 -79 -176 -169 -202 -49 -15 -59 -15 -109 -1 -90 26 -147 81
-180 177 -19 54 -16 168 6 215 19 41 72 98 113 120 37 21 152 18 197 -4z"/>
<path d="M4387 14146 c-73 -30 -119 -66 -162 -124 -96 -133 -84 -322 28 -432
l36 -34 -67 -71 c-228 -240 -505 -676 -699 -1100 -72 -158 -84 -185 -119 -277
-39 -103 -38 -98 -21 -98 8 0 27 24 42 53 16 28 37 68 48 87 11 19 41 73 67
120 89 160 126 225 152 265 274 426 482 711 646 886 l58 62 99 1 c84 2 109 6
155 28 153 71 238 221 209 369 -25 128 -114 231 -239 276 -58 21 -167 16 -233
-11z m212 -156 c44 -22 88 -70 97 -106 21 -82 -21 -176 -94 -213 -90 -45 -175
-35 -237 29 -39 40 -40 42 -40 115 0 67 3 76 31 112 64 80 161 105 243 63z"/>
<path d="M2918 12667 c-29 -31 -145 -260 -189 -372 -195 -498 -322 -1118 -348
-1699 -10 -213 -5 -443 11 -452 12 -8 15 7 27 176 7 85 21 215 32 290 10 74
24 171 30 215 77 551 204 1114 350 1550 11 33 24 69 29 80 33 80 88 230 85
233 -2 2 -14 -7 -27 -21z"/>
<path d="M1853 9585 c-118 -54 -189 -170 -180 -296 18 -274 330 -418 520 -240
75 70 99 126 99 231 0 74 -4 94 -27 143 -35 71 -94 130 -162 162 -71 34 -176
34 -250 0z m204 -161 c53 -41 73 -80 73 -148 0 -54 -3 -61 -38 -96 -63 -63
-132 -66 -198 -8 -43 38 -64 82 -64 135 0 113 139 185 227 117z"/>
<path d="M2223 8523 c6 -86 64 -446 102 -636 50 -244 153 -618 242 -872 20
-55 43 -125 53 -155 36 -108 123 -338 163 -430 9 -19 25 -59 37 -89 11 -30 30
-75 42 -100 11 -25 27 -62 36 -81 103 -233 318 -641 431 -820 368 -585 732
-1015 1106 -1305 121 -94 240 -175 258 -175 4 0 -106 114 -246 253 -474 471
-783 881 -1159 1537 -54 94 -238 459 -290 575 -48 107 -135 311 -168 395 -11
30 -25 64 -30 75 -19 45 -71 186 -100 270 -17 50 -34 99 -40 110 -5 11 -23 65
-40 120 -18 55 -36 109 -40 120 -10 23 -73 227 -100 325 -68 241 -96 348 -149
563 -33 133 -67 277 -76 320 -9 42 -22 77 -27 77 -7 0 -9 -27 -5 -77z"/>
<path d="M8145 2743 c-2542 -12 -3832 -27 -4605 -52 -355 -12 -438 -19 -402
-32 62 -23 1448 -29 7042 -28 5799 0 7110 5 7131 26 17 17 -49 22 -396 33
-740 25 -1101 30 -2460 39 -1540 10 -5364 19 -6310 14z"/>
<path d="M465 795 c-24 -24 -25 -27 -25 -185 0 -158 1 -161 25 -185 24 -25 27
-25 195 -25 168 0 171 0 195 25 24 24 25 27 25 185 0 158 -1 161 -25 185 -24
25 -27 25 -195 25 -168 0 -171 0 -195 -25z m237 -82 c24 -29 78 -171 75 -195
-3 -16 -12 -24 -31 -26 -23 -3 -29 3 -50 50 -13 29 -26 61 -29 71 -4 9 -12 17
-18 17 -7 0 -10 -3 -6 -6 3 -4 -1 -20 -9 -36 -9 -17 -11 -27 -5 -24 6 4 11 2
11 -3 0 -6 3 -10 8 -10 21 4 32 -3 32 -20 0 -30 -25 -42 -76 -39 -68 4 -74 20
-39 107 43 107 60 131 93 131 16 0 36 -8 44 -17z"/>
</g>
</svg>
